<?xml version="1.0" standalone="no"?>
<!DOCTYPE svg PUBLIC "-//W3C//DTD SVG 20010904//EN"
 "http://www.w3.org/TR/2001/REC-SVG-20010904/DTD/svg10.dtd">
<svg version="1.0" xmlns="http://www.w3.org/2000/svg"
 width="400.000000pt" height="99.000000pt" viewBox="0 0 400.000000 99.000000"
 preserveAspectRatio="xMidYMid meet">

<g transform="translate(0.000000,99.000000) scale(0.100000,-0.100000)"
fill="#000000" stroke="none">
<path d="M993 927 c7 -18 187 -330 196 -339 6 -7 64 89 189 310 l24 42 -207 0
c-167 0 -206 -3 -202 -13z"/>
<path d="M2444 777 c-2 -7 -3 -107 -2 -222 l3 -210 53 -3 52 -3 0 225 0 226
-50 0 c-32 0 -52 -5 -56 -13z"/>
<path d="M2970 565 l0 -226 53 3 52 3 3 47 c2 25 9 51 17 58 11 9 20 -1 46
-49 l32 -61 58 0 c38 0 59 4 59 12 0 6 -25 52 -56 101 l-56 90 56 56 c31 31
56 60 56 64 0 4 -27 7 -59 7 -58 0 -60 -1 -105 -51 l-45 -50 -3 108 -3 108
-52 3 -53 3 0 -226z"/>
<path d="M1450 751 c0 -6 30 -101 66 -211 l65 -201 57 3 56 3 37 135 c20 74
39 128 42 120 3 -8 17 -60 32 -115 39 -151 36 -147 98 -143 l52 3 62 190 c35
105 65 198 69 208 5 16 0 18 -52 15 l-57 -3 -37 -139 c-20 -77 -39 -136 -42
-130 -3 5 -20 69 -38 142 l-34 132 -55 0 -56 0 -34 -135 c-19 -74 -37 -135
-41 -135 -3 0 -22 60 -41 133 l-34 132 -57 3 c-36 2 -58 -1 -58 -7z"/>
<path d="M3460 549 l0 -210 53 3 52 3 3 208 2 207 -55 0 -55 0 0 -211z"/>
<path d="M3600 715 l0 -45 60 0 60 0 0 -165 0 -165 55 0 55 0 0 165 0 165 65
0 65 0 0 45 0 45 -180 0 -180 0 0 -45z"/>
<path d="M2145 656 c-42 -18 -83 -69 -91 -112 -20 -110 42 -189 158 -200 65
-7 131 23 165 75 29 43 31 121 4 171 -36 68 -155 101 -236 66z m129 -98 c36
-51 9 -128 -45 -128 -39 0 -69 32 -69 73 0 48 24 77 65 77 24 0 39 -7 49 -22z"/>
<path d="M2670 658 c-49 -14 -55 -22 -40 -58 10 -25 17 -30 34 -26 61 18 103
18 119 1 9 -9 17 -20 17 -25 0 -4 -34 -10 -75 -12 -65 -3 -79 -7 -101 -29 -53
-54 -25 -144 51 -164 28 -7 48 -5 81 7 37 13 44 13 44 1 0 -11 12 -13 53 -11
l52 3 3 112 c3 136 -9 176 -62 198 -40 17 -123 18 -176 3z m130 -198 c0 -35
-84 -57 -96 -25 -12 31 4 45 51 45 38 0 45 -3 45 -20z"/>
<path d="M3340 443 c-21 -8 -30 -24 -30 -55 0 -43 53 -63 84 -32 23 22 20 60
-6 78 -24 17 -25 17 -48 9z"/>
<path d="M1525 191 c26 -5 30 -11 33 -45 2 -22 1 -50 -3 -64 -5 -22 -10 -24
-41 -19 -30 5 -34 4 -24 -8 15 -18 52 -19 68 -3 7 7 12 40 12 80 l0 68 -37 -1
c-37 -1 -37 -2 -8 -8z"/>
<path d="M1697 120 c-19 -44 -32 -80 -27 -80 5 0 14 9 20 20 16 29 95 29 110
-1 7 -11 14 -18 17 -15 9 8 -60 156 -73 156 -6 0 -27 -36 -47 -80z m83 -12 c0
-5 -16 -8 -35 -8 -19 0 -35 2 -35 4 0 2 7 21 16 42 l16 39 19 -35 c10 -19 18
-38 19 -42z"/>
<path d="M1933 120 c0 -47 2 -74 4 -60 3 14 12 33 20 42 15 17 18 15 47 -22
27 -36 46 -50 46 -34 0 3 -14 24 -31 46 l-32 39 28 29 c16 17 25 33 21 37 -4
4 -23 -11 -42 -35 -20 -23 -40 -42 -44 -42 -5 0 -11 19 -13 43 -2 23 -4 4 -4
-43z"/>
<path d="M2162 139 c-2 -52 2 -69 16 -82 23 -21 61 -22 90 -1 19 13 22 23 21
82 l-2 67 -7 -63 c-7 -66 -12 -76 -46 -86 -37 -11 -58 16 -65 86 l-6 63 -1
-66z"/>
<path d="M2410 121 l0 -81 49 0 c68 0 104 38 67 72 -10 10 -11 17 -2 30 19 32
-4 53 -63 56 l-51 3 0 -80z m88 60 c8 -5 12 -17 10 -27 -2 -14 -13 -20 -41
-22 -35 -3 -37 -2 -37 27 0 27 3 31 28 31 15 0 33 -4 40 -9z m3 -71 c27 -15
24 -39 -7 -50 -49 -19 -64 -13 -64 25 0 31 3 35 26 35 14 0 34 -5 45 -10z"/>
<path d="M2772 188 c3 -7 15 -43 27 -81 13 -37 26 -67 31 -67 5 0 18 30 30 66
12 36 24 63 27 60 2 -2 13 -30 23 -62 9 -32 22 -60 28 -62 5 -1 20 28 32 65
13 37 25 74 28 81 2 6 0 12 -5 12 -6 0 -18 -27 -28 -60 -10 -34 -22 -63 -26
-65 -4 -3 -15 24 -24 60 -10 36 -24 65 -30 65 -7 0 -21 -29 -30 -65 -10 -35
-21 -63 -25 -60 -3 2 -15 31 -25 65 -10 33 -22 60 -28 60 -5 0 -7 -6 -5 -12z"/>
<path d="M3113 185 c-44 -31 -37 -111 13 -134 62 -28 124 8 124 72 0 64 -81
101 -137 62z m95 -12 c36 -32 37 -60 3 -94 -34 -34 -62 -33 -93 3 -26 29 -22
63 8 87 33 26 55 26 82 4z"/>
<path d="M3362 123 l-2 -83 48 1 47 2 -40 6 -40 6 -6 75 -5 75 -2 -82z"/>
<path d="M3591 178 c-5 -13 -21 -49 -35 -80 -14 -32 -22 -58 -17 -58 6 0 13 9
16 20 5 16 15 20 55 20 40 0 50 -4 55 -20 5 -17 25 -29 25 -16 0 17 -71 156
-80 156 -6 0 -14 -10 -19 -22z m26 -76 c-40 -5 -43 2 -23 45 l18 37 17 -39 18
-40 -30 -3z"/>
<path d="M3790 120 c0 -47 4 -80 10 -80 6 0 10 11 10 24 0 13 7 30 16 37 14
12 21 8 50 -26 43 -51 53 -41 13 13 l-30 42 26 35 c37 48 15 44 -28 -5 -19
-22 -37 -40 -40 -40 -4 0 -7 18 -7 40 0 22 -4 40 -10 40 -6 0 -10 -33 -10 -80z"/>
</g>
</svg>
